<mxfile host="65bd71144e">
    <diagram id="kgS2Zu8Znqh3bIXEU0GX" name="Page-1">
        <mxGraphModel dx="688" dy="585" grid="1" gridSize="10" guides="1" tooltips="1" connect="1" arrows="1" fold="1" page="1" pageScale="1" pageWidth="850" pageHeight="1100" math="0" shadow="0">
            <root>
                <mxCell id="0"/>
                <mxCell id="1" parent="0"/>
                <mxCell id="29" value="" style="rounded=1;whiteSpace=wrap;html=1;fontColor=#000000;fillColor=#FFFFFF;strokeColor=#000000;strokeWidth=2;" vertex="1" parent="1">
                    <mxGeometry x="350" y="295" width="190" height="170" as="geometry"/>
                </mxCell>
                <mxCell id="14" value="&amp;nbsp; &amp;nbsp; &amp;nbsp; &amp;nbsp;Information" style="html=1;shadow=0;dashed=0;align=center;verticalAlign=middle;shape=mxgraph.arrows2.arrow;dy=0.6;dx=40;flipH=1;notch=0;fillColor=#f0a30a;strokeColor=#BD7000;fontColor=#FFFFFF;" parent="1" vertex="1">
                    <mxGeometry x="210" y="330" width="110" height="50" as="geometry"/>
                </mxCell>
                <mxCell id="17" value="" style="pointerEvents=1;shadow=0;dashed=0;html=1;strokeColor=#005700;fillColor=#008a00;labelPosition=center;verticalLabelPosition=bottom;verticalAlign=top;outlineConnect=0;align=center;shape=mxgraph.office.concepts.maintenance;fontColor=#ffffff;" parent="1" vertex="1">
                    <mxGeometry x="480" y="339.5" width="40" height="56" as="geometry"/>
                </mxCell>
                <mxCell id="18" value="Actions&amp;nbsp; &amp;nbsp; &amp;nbsp;&amp;nbsp;" style="html=1;shadow=0;dashed=0;align=center;verticalAlign=middle;shape=mxgraph.arrows2.arrow;dy=0.6;dx=40;flipH=0;notch=0;fillColor=#e51400;strokeColor=#B20000;fontColor=#ffffff;" parent="1" vertex="1">
                    <mxGeometry x="210" y="396" width="120" height="50" as="geometry"/>
                </mxCell>
                <mxCell id="25" value="" style="pointerEvents=1;shadow=0;dashed=0;html=1;strokeColor=#A50040;fillColor=#d80073;labelPosition=center;verticalLabelPosition=bottom;verticalAlign=top;outlineConnect=0;align=center;shape=mxgraph.office.concepts.writing_pen;fontColor=#ffffff;" vertex="1" parent="1">
                    <mxGeometry x="413" y="405" width="54" height="54" as="geometry"/>
                </mxCell>
                <mxCell id="27" value="" style="fontColor=#0066CC;verticalAlign=top;verticalLabelPosition=bottom;labelPosition=center;align=center;html=1;outlineConnect=0;fillColor=#CCCCCC;strokeColor=#6881B3;gradientColor=none;gradientDirection=north;strokeWidth=2;shape=mxgraph.networks.user_male;" vertex="1" parent="1">
                    <mxGeometry x="120" y="320" width="48" height="120" as="geometry"/>
                </mxCell>
                <mxCell id="28" value="" style="fontColor=#ffffff;verticalAlign=top;verticalLabelPosition=bottom;labelPosition=center;align=center;html=1;outlineConnect=0;fillColor=#0050ef;strokeColor=#001DBC;gradientDirection=north;strokeWidth=2;shape=mxgraph.networks.laptop;" vertex="1" parent="1">
                    <mxGeometry x="360" y="339.5" width="85.45" height="47" as="geometry"/>
                </mxCell>
                <mxCell id="20" value="Environment" style="text;html=1;resizable=0;autosize=1;align=center;verticalAlign=middle;points=[];strokeColor=none;rounded=0;fontColor=#000000;fontStyle=0" parent="1" vertex="1">
                    <mxGeometry x="405" y="305" width="80" height="20" as="geometry"/>
                </mxCell>
            </root>
        </mxGraphModel>
    </diagram>
</mxfile>